<svg width="3579" height="522" viewBox="0 0 3579 522" fill="none" xmlns="http://www.w3.org/2000/svg">
<path d="M3516.54 0V203.4H3578.94V426H3514.74V203.4H3452.34V0H3516.54Z" fill="#FF6F00"/>
<path d="M3337.46 175.2H3401.66V361.2C3401.66 383.2 3396.06 399.6 3384.86 410.4C3374.06 420.8 3359.86 426 3342.26 426H3237.86C3217.46 426 3202.46 420 3192.86 408C3183.26 395.6 3178.46 380 3178.46 361.2H3114.26V175.8C3114.26 157 3119.06 141.4 3128.66 129C3138.26 116.6 3153.26 110.4 3173.66 110.4H3278.06C3295.66 110.4 3309.86 115.8 3320.66 126.6C3331.86 137 3337.46 153.2 3337.46 175.2ZM3337.46 175.8H3178.46V361.2H3337.46V175.8Z" fill="#FF6F00"/>
<path d="M3042.52 361.2V426H2866.73C2848.33 426 2833.12 420.8 2821.12 410.4C2809.12 400 2803.12 384.6 2803.12 364.2V175.2H2866.73C2866.73 156.8 2871.73 141.6 2881.73 129.6C2892.13 117.2 2907.32 111 2927.32 111H3038.93V175.8H2867.32V361.2H3042.52Z" fill="#FF6F00"/>
<path d="M2667.15 175.2H2731.35V361.2C2731.35 383.2 2725.75 399.6 2714.55 410.4C2703.75 420.8 2689.55 426 2671.95 426H2567.55C2547.15 426 2532.15 420 2522.55 408C2512.95 395.6 2508.15 380 2508.15 361.2H2443.95V175.8C2443.95 157 2448.75 141.4 2458.35 129C2467.95 116.6 2482.95 110.4 2503.35 110.4H2607.75C2625.35 110.4 2639.55 115.8 2650.35 126.6C2661.55 137 2667.15 153.2 2667.15 175.2ZM2667.15 175.8H2508.15V361.2H2667.15V175.8Z" fill="#FF6F00"/>
<path d="M2252.59 426C2232.19 426 2216.99 419.8 2206.99 407.4C2196.99 395 2191.99 379.4 2191.99 360.6V0.599976H2256.19V111.6H2344.39V176.4H2256.19V360.6H2371.99V426H2252.59Z" fill="#FF6F00"/>
<path d="M2056.01 175.2H2120.21V361.2C2120.21 383.2 2114.61 399.6 2103.41 410.4C2092.61 420.8 2078.41 426 2060.81 426H1956.41C1936.01 426 1921.01 420 1911.41 408C1901.81 395.6 1897.01 380 1897.01 361.2H1832.81V175.8C1832.81 157 1837.61 141.4 1847.21 129C1856.81 116.6 1871.81 110.4 1892.21 110.4H1996.61C2014.21 110.4 2028.41 115.8 2039.21 126.6C2050.41 137 2056.01 153.2 2056.01 175.2ZM2056.01 175.8H1897.01V361.2H2056.01V175.8Z" fill="#FF6F00"/>
<path d="M1550.98 426V176.4H1615.18C1615.18 157.6 1620.18 142.2 1630.18 130.2C1640.18 117.8 1655.38 111.6 1675.78 111.6H1760.98V176.4H1615.18V426H1550.98Z" fill="#FF6F00"/>
<path d="M1414.95 175.8H1479.15V361.2C1479.15 380 1474.35 395.6 1464.75 408C1455.15 420 1440.15 426 1419.75 426H1257.75V521.4H1193.55V175.8C1193.55 153.4 1198.95 137 1209.75 126.6C1220.95 115.8 1235.35 110.4 1252.95 110.4H1355.55C1375.95 110.4 1390.95 116.6 1400.55 129C1410.15 141.4 1414.95 157 1414.95 175.8ZM1257.75 361.2H1414.95V175.8H1257.75V361.2Z" fill="#FF6F00"/>
<path d="M900.333 175.8C900.333 157 905.133 141.4 914.733 129C924.333 116.6 939.333 110.4 959.733 110.4H1062.33C1079.93 110.4 1094.13 115.8 1104.93 126.6C1116.13 137 1121.73 153.4 1121.73 175.8V521.4H1057.53V426H895.533C875.133 426 860.133 420 850.533 408C840.933 395.6 836.133 380 836.133 361.2V175.8H900.333ZM1057.53 361.2V175.8H900.333V361.2H1057.53Z" fill="#FF6F00"/>
<path d="M556.359 110.4H700.359V175.8C718.759 175.8 733.959 181 745.959 191.4C757.959 201.8 763.959 217.2 763.959 237.6V426H700.359V175.8H557.559V426H493.359V175.8H556.359V110.4Z" fill="#FF6F00"/>
<path d="M357.422 0H421.622V65.4H357.422V0ZM357.422 109.8H421.622V426H357.422V109.8Z" fill="#FF6F00"/>
<path d="M221.4 175.8H285.6V361.2C285.6 380 280.8 395.6 271.2 408C261.6 420 246.6 426 226.2 426H64.2V521.4H0V175.8C0 153.4 5.4 137 16.2 126.6C27.4 115.8 41.8 110.4 59.4 110.4H162C182.4 110.4 197.4 116.6 207 129C216.6 141.4 221.4 157 221.4 175.8ZM64.2 361.2H221.4V175.8H64.2V361.2Z" fill="#FF6F00"/>
</svg>
